<svg width="326" height="98" viewBox="0 0 176 92" fill="none" xmlns="http://www.w3.org/2000/svg">
<path d="M47.7148 18.9258L16.7188 90H0.195312L41.0352 4.6875H51.4648L47.7148 18.9258ZM50.5859 90L43.9648 17.5781L44.9609 4.6875H54.8047L66.2305 90H50.5859ZM56.4453 58.2422L54.1016 71.3086H16.0742L18.418 58.2422H56.4453ZM83.9023 4.6875L108.922 4.74609C114 4.90234 118.258 6.01563 121.695 8.08594C125.172 10.1562 127.73 13.0469 129.371 16.7578C131.012 20.4687 131.598 24.8828 131.129 30C130.816 34.1797 129.898 37.8711 128.375 41.0742C126.852 44.2383 124.762 46.9922 122.105 49.3359C119.449 51.6797 116.227 53.6719 112.438 55.3125L107.398 57.9492H85.25L87.4766 44.8828L101.715 45C104.488 44.9609 106.852 44.3359 108.805 43.125C110.797 41.875 112.379 40.1953 113.551 38.0859C114.723 35.9766 115.484 33.6133 115.836 30.9961C116.07 28.9648 116.07 26.9727 115.836 25.0195C115.602 23.0273 114.898 21.3672 113.727 20.0391C112.555 18.7109 110.758 17.9883 108.336 17.8711L97.0273 17.8125L84.4883 90H69.1953L83.9023 4.6875ZM107.574 90L98.668 51.7969H114.078L123.922 89.1211V90H107.574ZM168.61 4.6875L153.786 90H138.552L153.376 4.6875H168.61ZM189.411 4.6875L187.126 17.8125H130.524L132.809 4.6875H189.411Z" fill="#282773"/>
<path d="M191.464 91.1719C187.245 91.0938 183.652 90.2734 180.683 88.7109C177.753 87.1484 175.429 85.0195 173.71 82.3242C171.991 79.5898 170.82 76.5234 170.195 73.125C169.57 69.6875 169.452 66.0352 169.843 62.168L170.546 56.4844C171.054 52.5 171.972 48.6328 173.3 44.8828C174.667 41.1328 176.484 37.7734 178.749 34.8047C181.054 31.7969 183.886 29.4531 187.245 27.7734C190.605 26.0937 194.55 25.293 199.081 25.3711C203.417 25.4883 206.913 26.4648 209.57 28.3008C212.226 30.0977 214.218 32.4805 215.546 35.4492C216.913 38.3789 217.734 41.6406 218.007 45.2344C218.28 48.8281 218.202 52.4219 217.773 56.0156L216.718 63.2227H176.054L177.988 52.2656L203.71 52.3242L204.003 50.6836C204.277 48.8867 204.355 47.0117 204.238 45.0586C204.12 43.1055 203.593 41.4648 202.655 40.1367C201.718 38.7695 200.097 38.0078 197.792 37.8516C195.331 37.7344 193.32 38.2812 191.757 39.4922C190.195 40.6641 188.964 42.2266 188.066 44.1797C187.206 46.1328 186.562 48.2031 186.132 50.3906C185.741 52.5391 185.448 54.5703 185.253 56.4844L184.55 62.2266C184.355 64.0625 184.277 65.918 184.316 67.793C184.355 69.668 184.628 71.4258 185.136 73.0664C185.644 74.668 186.523 75.9766 187.773 76.9922C189.062 78.0078 190.878 78.5547 193.222 78.6328C196.034 78.7109 198.613 78.1836 200.956 77.0508C203.3 75.8789 205.488 74.3945 207.519 72.5977L212.851 81.7969C211.21 83.9844 209.238 85.7812 206.933 87.1875C204.628 88.5938 202.128 89.6094 199.433 90.2344C196.777 90.8984 194.12 91.2109 191.464 91.1719ZM240.191 78.75C242.222 78.7891 243.863 78.3398 245.113 77.4023C246.402 76.4258 247.398 75.1367 248.101 73.5352C248.804 71.9336 249.312 70.293 249.624 68.6133L263.335 68.5547C262.945 72.8125 261.695 76.6797 259.585 80.1562C257.476 83.6328 254.683 86.3672 251.206 88.3594C247.73 90.3516 243.765 91.3086 239.312 91.2305C234.898 91.1133 231.284 90.1953 228.472 88.4766C225.698 86.7578 223.57 84.4531 222.085 81.5625C220.601 78.6719 219.644 75.4688 219.214 71.9531C218.823 68.3984 218.843 64.707 219.273 60.8789L219.917 55.7227C220.464 51.7383 221.382 47.9102 222.671 44.2383C223.96 40.5273 225.738 37.2461 228.003 34.3945C230.269 31.5039 233.062 29.2578 236.382 27.6562C239.741 26.0547 243.667 25.3125 248.159 25.4297C252.925 25.5469 256.714 26.7578 259.527 29.0625C262.339 31.3281 264.331 34.2969 265.503 37.9688C266.714 41.6016 267.222 45.5664 267.027 49.8633L253.257 49.8047C253.296 48.125 253.218 46.3867 253.023 44.5898C252.827 42.793 252.261 41.25 251.323 39.9609C250.386 38.6719 248.863 37.9883 246.753 37.9102C244.292 37.793 242.3 38.3008 240.777 39.4336C239.292 40.5273 238.12 42.0117 237.261 43.8867C236.441 45.7227 235.835 47.6953 235.445 49.8047C235.054 51.875 234.741 53.8477 234.507 55.7227L233.98 60.9375C233.823 62.4609 233.648 64.2188 233.452 66.2109C233.257 68.2031 233.257 70.1562 233.452 72.0703C233.687 73.9453 234.292 75.5273 235.269 76.8164C236.245 78.0664 237.886 78.7109 240.191 78.75ZM293.605 0L278.019 90H263.312L278.956 0H293.605ZM281.71 56.1328L277.726 56.25C278.116 53.0469 278.8 49.6484 279.777 46.0547C280.792 42.4219 282.198 39.0234 283.995 35.8594C285.831 32.6562 288.155 30.0781 290.968 28.125C293.78 26.1719 297.179 25.2539 301.163 25.3711C304.484 25.4492 307.14 26.25 309.132 27.7734C311.124 29.2969 312.589 31.25 313.527 33.6328C314.464 36.0156 315.03 38.6133 315.226 41.4258C315.421 44.1992 315.382 46.9336 315.109 49.6289L308.37 90H293.722L300.402 49.4531C300.558 47.8125 300.597 46.1133 300.519 44.3555C300.48 42.5977 300.05 41.1133 299.23 39.9023C298.409 38.6523 296.905 38.0273 294.718 38.0273C292.413 37.9102 290.48 38.457 288.917 39.668C287.355 40.8789 286.085 42.4414 285.109 44.3555C284.171 46.2305 283.429 48.2227 282.882 50.332C282.335 52.4023 281.945 54.3359 281.71 56.1328Z" fill="#9D9BF2"/>
</svg>
