<svg width="23" height="22" viewBox="0 0 23 22" fill="none" xmlns="http://www.w3.org/2000/svg">
<path d="M11.5 22C11.2227 22 10.9568 21.8946 10.7608 21.7071C10.5647 21.5196 10.4545 21.2652 10.4545 21V18H6.27273C5.71818 18 5.18635 17.7893 4.79423 17.4142C4.40211 17.0391 4.18182 16.5304 4.18182 16V6C4.18182 5.46957 4.40211 4.96086 4.79423 4.58579C5.18635 4.21071 5.71818 4 6.27273 4H20.9091C21.4636 4 21.9955 4.21071 22.3876 4.58579C22.7797 4.96086 23 5.46957 23 6V16C23 16.5304 22.7797 17.0391 22.3876 17.4142C21.9955 17.7893 21.4636 18 20.9091 18H16.6227L12.7545 21.71C12.5455 21.89 12.2945 22 12.0227 22H11.5ZM2.09091 14H0V2C0 1.46957 0.220292 0.960859 0.612413 0.585786C1.00453 0.210714 1.53637 0 2.09091 0H18.8182V2H2.09091V14Z" fill="#070739"/>
</svg>
