<svg width="32" height="30" viewBox="0 0 32 30" fill="none" xmlns="http://www.w3.org/2000/svg">
<path d="M31.7178 16.5L29.9258 18.2647L26.2523 14.6471L28.0442 12.8824C28.4206 12.5118 29.0477 12.5118 29.4241 12.8824L31.7178 15.1412C32.0941 15.5118 32.0941 16.1294 31.7178 16.5ZM14.3357 26.3647L25.195 15.6706L28.8685 19.2882L18.0272 30H14.3357V26.3647ZM14.3357 17.6471C6.41523 17.6471 0 20.8059 0 24.7059V28.2353H10.7518V24.9L17.9196 17.8412C16.7369 17.7 15.5363 17.6471 14.3357 17.6471ZM14.3357 0C12.4347 0 10.6115 0.743695 9.26727 2.06748C7.92304 3.39127 7.16786 5.18671 7.16786 7.05882C7.16786 8.93094 7.92304 10.7264 9.26727 12.0502C10.6115 13.374 12.4347 14.1176 14.3357 14.1176C16.2367 14.1176 18.0599 13.374 19.4042 12.0502C20.7484 10.7264 21.5036 8.93094 21.5036 7.05882C21.5036 5.18671 20.7484 3.39127 19.4042 2.06748C18.0599 0.743695 16.2367 0 14.3357 0Z" fill="black"/>
</svg>
