<svg width="17" height="15" viewBox="0 0 17 15" fill="none" xmlns="http://www.w3.org/2000/svg">
<path d="M6.79915 0C8.37529 0 9.88688 0.586988 11.0014 1.63183C12.1159 2.67668 12.742 4.09379 12.742 5.57143C12.742 6.95143 12.2026 8.22 11.3157 9.19714L11.5626 9.42857H12.2849L16.8563 13.7143L15.4849 15L10.9134 10.7143V10.0371L10.6666 9.80571C9.62429 10.6371 8.27115 11.1429 6.79915 11.1429C5.22301 11.1429 3.71142 10.5559 2.59692 9.51102C1.48241 8.46618 0.856293 7.04906 0.856293 5.57143C0.856293 4.09379 1.48241 2.67668 2.59692 1.63183C3.71142 0.586988 5.22301 0 6.79915 0ZM6.79915 1.71429C4.51344 1.71429 2.68486 3.42857 2.68486 5.57143C2.68486 7.71429 4.51344 9.42857 6.79915 9.42857C9.08486 9.42857 10.9134 7.71429 10.9134 5.57143C10.9134 3.42857 9.08486 1.71429 6.79915 1.71429Z" fill="white"/>
</svg>
