<svg width="229" height="68" viewBox="0 0 229 68" fill="none" xmlns="http://www.w3.org/2000/svg">
<path d="M5.99219 37.3691L18.2812 43.8438L17.2656 49.6836L1.42188 40.2383L2.13281 36.4043L5.99219 37.3691ZM20.2871 32.3164L6.34766 38.6133L1.54883 39.6289L2.31055 35.2871L21.4043 25.8926L20.2871 32.3164ZM207.901 17.0312L188.376 57.1738H184.491L204.068 17.0312H207.901ZM223.847 37.9531L210.466 30.793L211.278 26.1973L227.401 35.7949L226.894 38.5879L223.847 37.9531ZM208.181 44.0215L223.568 36.9629L227.3 36.3789L226.741 39.502L207.267 49.1504L208.181 44.0215Z" fill="#9D9BF2"/>
<path d="M44.5949 54L43.5549 44.328H31.7509L27.4869 54H21.4549L38.1469 17.704H45.9469L50.5229 54H44.5949ZM41.3709 23.424H40.9029L33.8309 39.492H43.0869L41.3709 23.424ZM59.0306 54H53.3626L59.3946 17.704H72.4466C75.5666 17.704 77.8892 18.536 79.4146 20.2C80.9746 21.864 81.7546 24.0307 81.7546 26.7C81.7546 30.1667 80.8706 32.9573 79.1026 35.072C77.3692 37.152 74.9252 38.4173 71.7706 38.868L77.6986 54H71.6146L66.3106 39.284H61.4746L59.0306 54ZM69.1706 34.656C72.8106 34.656 74.8906 33.096 75.4106 29.976L75.7226 28.104C75.7572 27.9307 75.7919 27.6707 75.8266 27.324C75.8612 26.9773 75.8786 26.648 75.8786 26.336C75.8786 23.7707 74.3359 22.488 71.2506 22.488H64.3346L62.3066 34.656H69.1706ZM99.1023 22.54L93.8503 54H88.1303L93.3823 22.54H81.9423L82.7743 17.704H111.374L110.542 22.54H99.1023ZM115.67 54.624C112.273 54.624 109.655 53.688 107.818 51.816C105.981 49.9093 105.062 47.0147 105.062 43.132C105.062 40.7053 105.426 38.4867 106.154 36.476C106.882 34.4307 107.887 32.68 109.17 31.224C110.487 29.7333 112.047 28.5893 113.85 27.792C115.687 26.96 117.681 26.544 119.83 26.544C121.147 26.544 122.361 26.7 123.47 27.012C124.579 27.324 125.533 27.792 126.33 28.416C127.162 29.0053 127.803 29.7507 128.254 30.652C128.705 31.5533 128.93 32.5933 128.93 33.772C128.93 34.708 128.705 35.6787 128.254 36.684C127.838 37.6893 126.937 38.6253 125.55 39.492C124.198 40.3587 122.222 41.0867 119.622 41.676C117.057 42.2653 113.642 42.612 109.378 42.716C109.343 42.9933 109.326 43.2533 109.326 43.496C109.326 43.704 109.326 43.8427 109.326 43.912C109.326 44.848 109.413 45.7493 109.586 46.616C109.759 47.4827 110.089 48.2627 110.574 48.956C111.059 49.6147 111.735 50.152 112.602 50.568C113.469 50.9493 114.613 51.14 116.034 51.14C117.005 51.14 117.871 51.036 118.634 50.828C119.431 50.5853 120.177 50.2387 120.87 49.788C121.598 49.3027 122.291 48.696 122.95 47.968C123.643 47.2053 124.371 46.2867 125.134 45.212L127.994 46.98C126.469 49.476 124.735 51.3827 122.794 52.7C120.887 53.9827 118.513 54.624 115.67 54.624ZM119.466 29.924C116.762 29.924 114.561 30.7387 112.862 32.368C111.163 33.9973 110.123 36.3373 109.742 39.388L109.69 39.908C112.949 39.804 115.566 39.5613 117.542 39.18C119.553 38.764 121.078 38.2787 122.118 37.724C123.193 37.1693 123.903 36.5627 124.25 35.904C124.597 35.2453 124.77 34.5867 124.77 33.928C124.77 33.3733 124.666 32.8533 124.458 32.368C124.285 31.8827 123.99 31.4667 123.574 31.12C123.158 30.7387 122.603 30.444 121.91 30.236C121.251 30.028 120.437 29.924 119.466 29.924ZM143.886 54.624C142.222 54.624 140.748 54.3467 139.466 53.792C138.218 53.2373 137.16 52.4747 136.294 51.504C135.462 50.4987 134.82 49.3027 134.37 47.916C133.954 46.4947 133.746 44.952 133.746 43.288C133.746 40.7227 134.11 38.4173 134.838 36.372C135.566 34.292 136.554 32.524 137.802 31.068C139.05 29.612 140.506 28.5027 142.17 27.74C143.868 26.9427 145.671 26.544 147.578 26.544C148.999 26.544 150.23 26.7173 151.27 27.064C152.344 27.4107 153.263 27.8787 154.026 28.468C154.788 29.0227 155.395 29.6987 155.846 30.496C156.331 31.2933 156.695 32.1253 156.938 32.992L153.454 34.344C152.934 32.68 152.154 31.5533 151.114 30.964C150.108 30.3747 148.774 30.08 147.11 30.08C144.822 30.08 142.95 30.8253 141.494 32.316C140.072 33.8067 139.119 35.956 138.634 38.764L138.114 41.884C138.01 42.508 137.94 42.9933 137.906 43.34C137.871 43.6867 137.854 44.0333 137.854 44.38C137.854 46.668 138.443 48.3667 139.622 49.476C140.835 50.5507 142.43 51.088 144.406 51.088C144.995 51.088 145.584 51.0187 146.174 50.88C146.798 50.7413 147.456 50.4467 148.15 49.996C148.878 49.5453 149.658 48.8867 150.49 48.02C151.322 47.1533 152.275 45.992 153.35 44.536L156.262 46.252C155.43 47.604 154.58 48.8173 153.714 49.892C152.847 50.932 151.911 51.7987 150.906 52.492C149.935 53.1853 148.86 53.7053 147.682 54.052C146.538 54.4333 145.272 54.624 143.886 54.624ZM167.941 15.52H171.997L168.981 33.512H169.189C170.195 31.3627 171.391 29.664 172.777 28.416C174.164 27.168 175.949 26.544 178.133 26.544C180.387 26.544 182.155 27.22 183.437 28.572C184.755 29.924 185.413 31.8307 185.413 34.292C185.413 34.812 185.379 35.384 185.309 36.008C185.275 36.5973 185.205 37.1867 185.101 37.776L182.397 54H178.341L180.993 38.14C181.097 37.516 181.167 36.9613 181.201 36.476C181.236 35.956 181.253 35.5573 181.253 35.28C181.253 33.6853 180.889 32.4373 180.161 31.536C179.433 30.6 178.307 30.132 176.781 30.132C175.603 30.132 174.545 30.392 173.609 30.912C172.708 31.432 171.876 32.1427 171.113 33.044C170.975 33.2173 170.749 33.4947 170.437 33.876C170.16 34.2227 169.865 34.6733 169.553 35.228C169.241 35.748 168.947 36.3547 168.669 37.048C168.392 37.7067 168.184 38.4173 168.045 39.18L165.549 54H161.493L167.941 15.52Z" fill="#EFEFFD"/>
</svg>
